<svg xmlns="http://www.w3.org/2000/svg" viewBox="0 0 200 200">
  <rect x="51" y="17" width="102" height="130" rx="15" fill="#FFFFFF" stroke="#CDEBE8" stroke-width="3"/>
  <rect x="66" y="34" width="72" height="6" rx="3" fill="#1EC4B6"/>
  <circle cx="85" cy="72" r="19" fill="#E0F7F4"/>
  <circle cx="85" cy="66" r="7" fill="#1EC4B6"/>
  <path d="M70 84c1-8 7-13 15-13s14 5 15 13" fill="#1EC4B6"/>
  <rect x="113" y="60" width="27" height="5" rx="2.5" fill="#00384F"/>
  <rect x="113" y="72" width="19" height="4" rx="2" fill="#7BA6AD"/>
  <rect x="67" y="107" width="69" height="4" rx="2" fill="#B4D5D8"/>
  <path d="M25 105c0-11 9-20 20-20h38l11 12h61c11 0 20 9 20 20v45c0 12-10 22-22 22H47c-12 0-22-10-22-22v-57Z" fill="#00384F"/>
  <path d="M25 118h150v43c0 13-10 23-23 23H48c-13 0-23-10-23-23v-43Z" fill="#0A5262"/>
  <rect x="43" y="132" width="61" height="7" rx="3.5" fill="#B8F0E8"/>
  <rect x="43" y="146" width="45" height="5" rx="2.5" fill="#68B8B8"/>
  <circle cx="138" cy="145" r="22" fill="#1EC4B6"/>
  <path d="M138 134v22M127 145h22" stroke="#FFFFFF" stroke-width="5" stroke-linecap="round"/>
</svg>
